<svg width="18.750000" height="27.000000" viewBox="0 0 18.75 27" fill="none" xmlns="http://www.w3.org/2000/svg" xmlns:xlink="http://www.w3.org/1999/xlink">
	<desc>
			Created with Pixso.
	</desc>
	<defs/>
	<path id="Vector" d="M18.0239 25.6587L17.5365 25.6587C17.5365 25.6534 17.5341 25.6483 17.5331 25.6434L17.5198 25.5837C17.5112 25.5446 17.502 25.5057 17.4924 25.4672C17.4883 25.449 17.4839 25.4308 17.4794 25.4127C17.4668 25.3618 17.4535 25.3109 17.4398 25.26L17.4357 25.2455C17.4207 25.1904 17.4049 25.1355 17.3885 25.0808L17.3721 25.0281C17.3608 24.9905 17.3489 24.9532 17.3379 24.9159C17.3314 24.8955 17.3246 24.8755 17.3181 24.8553C17.3062 24.8193 17.2938 24.7834 17.2811 24.7478C17.2747 24.729 17.2678 24.7098 17.2614 24.6914C17.2454 24.6466 17.229 24.6023 17.2122 24.5582C17.2084 24.5488 17.2053 24.5397 17.2015 24.5303C17.1818 24.4785 17.1609 24.427 17.1396 24.3755C17.1322 24.3567 17.1243 24.3381 17.1165 24.3197C17.1021 24.2874 17.0878 24.2517 17.073 24.2179L17.0453 24.1554C17.031 24.123 17.0162 24.0906 17.0012 24.0582C16.9921 24.0381 16.9824 24.0177 16.9729 23.9976C16.9554 23.9603 16.9387 23.9233 16.9192 23.8867C16.912 23.8728 16.9055 23.8586 16.8983 23.8444C16.8741 23.796 16.8491 23.7471 16.8239 23.7004L16.7897 23.6399L16.7415 23.552L16.7039 23.4872C16.6881 23.46 16.6725 23.4329 16.6564 23.4056C16.6437 23.3835 16.6307 23.3616 16.6178 23.3408C16.6 23.3113 16.5836 23.2825 16.5641 23.2533L16.5149 23.1742C16.4916 23.1379 16.4684 23.1013 16.4445 23.0653C16.4294 23.0426 16.4144 23.0203 16.399 22.9979C16.3837 22.9756 16.3668 22.95 16.3505 22.9263C16.3341 22.9027 16.3163 22.879 16.3013 22.8557C16.2863 22.8324 16.2698 22.8113 16.2538 22.7909C16.2377 22.7705 16.2196 22.7433 16.2021 22.7196L16.1539 22.6548C16.1198 22.6117 16.0883 22.5686 16.0548 22.5251L16.0079 22.4658C15.9882 22.4409 15.9677 22.4163 15.9475 22.3916L15.9023 22.3373C15.8815 22.3123 15.8604 22.2876 15.8391 22.2627L15.7947 22.2115L15.7284 22.1364L15.6891 22.0929C15.6074 22.0032 15.5237 21.9147 15.4379 21.8285L15.4003 21.7905L15.3217 21.7137L15.2831 21.6769C15.2557 21.6506 15.2284 21.6246 15.2007 21.599L15.1722 21.5731C15.0756 21.484 14.9761 21.3972 14.8749 21.314L14.8473 21.2909C14.816 21.265 14.7845 21.2394 14.7529 21.2141L14.7214 21.1888C14.6873 21.1628 14.6561 21.1373 14.623 21.1117L14.6063 21.0991C14.4945 21.0135 14.38 20.9302 14.2645 20.8502L14.2484 20.8389C14.2118 20.814 14.1753 20.7893 14.1383 20.765L14.1141 20.7491C14.0765 20.7241 14.0386 20.6998 14.0006 20.6755L13.9941 20.6716C13.8683 20.5919 13.7401 20.5156 13.6096 20.4425L13.6045 20.4393C13.5631 20.4163 13.5217 20.3939 13.4803 20.3716L13.4623 20.3618C13.2422 20.2441 13.0161 20.1361 12.7842 20.0378L12.7698 20.0316C12.7086 20.0057 12.6471 19.9808 12.585 19.9562L13.8082 19.9562C14.0074 19.9562 14.1691 19.7388 14.1691 19.4701C14.1691 19.2015 14.0074 18.984 13.8082 18.984L13.4438 18.984C13.4664 18.9296 13.4913 18.868 13.5183 18.7987C13.8629 18.5952 14.4692 18.1616 15.0708 17.3651L15.0756 17.359C15.1211 17.2993 15.1659 17.2377 15.2098 17.174L15.2188 17.1614C15.2626 17.0988 15.3063 17.0343 15.3494 16.9669L15.361 16.9491C15.3815 16.9166 15.402 16.8843 15.4225 16.8518C15.4225 16.8518 15.4225 16.8492 15.4249 16.8477C15.446 16.8153 15.4669 16.7797 15.4878 16.745L15.5011 16.7225C15.5189 16.6927 15.537 16.6624 15.5544 16.6315C15.5579 16.626 15.5613 16.6205 15.5643 16.6146C15.5845 16.5797 15.6046 16.5441 15.6245 16.5081L15.6382 16.4832C15.6545 16.4532 15.6707 16.4232 15.6866 16.3927C15.6915 16.3843 15.6963 16.3755 15.7007 16.3668C15.7198 16.3302 15.739 16.2932 15.7582 16.2556L15.7715 16.2294C15.7865 16.199 15.8019 16.1678 15.8169 16.1367L15.8334 16.1042C15.8518 16.066 15.8699 16.0272 15.8881 15.988L15.8993 15.963C15.9143 15.9307 15.9291 15.8982 15.9437 15.8658L15.9612 15.8269C15.9783 15.7877 15.9954 15.7482 16.0117 15.7084C16.0148 15.7012 16.0179 15.6937 16.0206 15.6866C16.036 15.65 16.051 15.6128 16.066 15.5752L16.0831 15.5323C16.0972 15.4967 16.1112 15.4608 16.1249 15.4248L16.1351 15.3976C16.1512 15.3549 16.1669 15.311 16.1826 15.2679L16.1991 15.2219C16.2113 15.1876 16.2233 15.1526 16.2352 15.1176C16.2397 15.1046 16.2441 15.0917 16.2483 15.0787C16.2633 15.0341 16.2783 14.9883 16.2931 14.9426C16.2979 14.9268 16.303 14.9102 16.3077 14.8953L16.3419 14.7887C16.3463 14.7732 16.3512 14.7563 16.3556 14.7423C16.3696 14.6954 16.3837 14.6475 16.397 14.5991C16.4014 14.5839 16.4055 14.5684 16.4095 14.5529C16.4198 14.5155 16.4301 14.4783 16.4401 14.4403C16.4445 14.4232 16.4489 14.406 16.4537 14.3888C16.4663 14.339 16.479 14.2887 16.4913 14.2378L16.5016 14.1954C16.5111 14.1549 16.5206 14.114 16.5299 14.0729L16.5422 14.0178C16.5538 13.965 16.5654 13.9122 16.5764 13.8584C16.5787 13.848 16.5808 13.8373 16.5829 13.8259C16.5924 13.7797 16.6017 13.7327 16.6106 13.6857C16.6144 13.6665 16.6178 13.6475 16.6215 13.6283C16.6304 13.5801 16.6389 13.5311 16.6475 13.4828C16.6492 13.4724 16.6512 13.4624 16.653 13.4524C16.6625 13.3954 16.6719 13.3379 16.681 13.28C16.6841 13.2605 16.6871 13.2411 16.6898 13.2213C16.697 13.1743 16.7039 13.1271 16.7107 13.0791L16.7169 13.035C16.7251 12.9753 16.7329 12.9154 16.7405 12.8545C16.7428 12.8353 16.7449 12.8163 16.7473 12.7969C16.7532 12.7484 16.7587 12.6998 16.7637 12.651C16.7657 12.6335 16.7678 12.6163 16.7695 12.5989C16.7761 12.5361 16.7822 12.473 16.788 12.4093C16.788 12.3915 16.791 12.3737 16.7924 12.3555C16.7969 12.3043 16.8013 12.2528 16.8051 12.2009C16.8051 12.1818 16.8081 12.1627 16.8094 12.1436C16.8143 12.0775 16.8187 12.0109 16.8229 11.944C16.8229 11.9287 16.8229 11.9115 16.8252 11.8979C16.8282 11.8422 16.8314 11.7861 16.8337 11.7297C16.8337 11.7094 16.8337 11.689 16.8365 11.6686C16.8392 11.5989 16.8419 11.5288 16.844 11.4579C16.844 11.4481 16.844 11.4381 16.844 11.4281C16.8458 11.365 16.8472 11.3013 16.8481 11.2369C16.8481 11.2158 16.8481 11.1948 16.8481 11.1737C16.8481 11.1046 16.8481 11.035 16.8481 10.9651L16.8481 10.9489C16.8481 10.8743 16.8481 10.7988 16.8481 10.722L16.8481 10.6572C16.8481 10.5924 16.8453 10.5243 16.8436 10.4569L16.8436 10.4203C16.8413 10.3425 16.8383 10.2638 16.8351 10.1847C16.8351 10.1643 16.8331 10.1436 16.8324 10.1232C16.8295 10.0566 16.826 9.98962 16.8221 9.92224C16.8221 9.90576 16.8221 9.88989 16.8195 9.87207C16.8146 9.79102 16.8093 9.70935 16.8037 9.62708L16.7996 9.5697C16.7944 9.50098 16.7893 9.43201 16.7836 9.3623C16.7836 9.34229 16.7804 9.32214 16.7787 9.302C16.7716 9.21777 16.7637 9.13257 16.7555 9.047C16.7555 9.03088 16.7521 9.01465 16.7507 8.99805C16.7435 8.92517 16.7357 8.85168 16.7278 8.77747C16.7255 8.75513 16.723 8.73303 16.7203 8.71069C16.7107 8.62256 16.7004 8.53406 16.6896 8.44434C16.6896 8.43335 16.6864 8.42224 16.6851 8.41187C16.6753 8.33154 16.6649 8.25073 16.6539 8.16956C16.6505 8.14551 16.6475 8.12158 16.644 8.09766C16.6313 8.00562 16.6182 7.91284 16.6047 7.81921C15.2375 -1.40747 5.54907 0.0899658 5.54907 0.0899658L5.85938 2.07239L0 7.9408L0.255981 10.2068L2.47559 11.5029C2.57458 11.2645 2.70166 11.0375 2.85437 10.826C4.2865 9.25989 7.06494 8.03052 7.86023 7.77551C8.01953 7.72461 8.11011 7.69897 8.11011 7.69897C4.30554 12.3672 4.73828 17.7151 4.90784 18.9899C4.73145 19.0223 4.59509 19.2241 4.59509 19.4705C4.59509 19.7388 4.75671 19.9565 4.95605 19.9565L6.17932 19.9565C4.14478 20.7639 2.52991 22.3015 1.68713 24.2339C1.68616 24.2365 1.68494 24.239 1.68372 24.2416C1.62146 24.385 1.5636 24.5305 1.51001 24.6781C1.51013 24.6796 1.51013 24.6812 1.51001 24.6826C1.49573 24.7228 1.48169 24.7629 1.46802 24.8035C1.46289 24.8181 1.45776 24.8326 1.453 24.8475C1.44067 24.8839 1.42932 24.9204 1.41882 24.9574C1.4126 24.9762 1.40686 24.9954 1.401 25.0142C1.39014 25.0488 1.37952 25.0837 1.36926 25.1188L1.35083 25.1836C1.34119 25.2159 1.33167 25.2506 1.32275 25.2844C1.31628 25.3083 1.31006 25.332 1.30396 25.356C1.29578 25.3884 1.28723 25.4208 1.2793 25.4532C1.27148 25.4856 1.26392 25.5179 1.25647 25.5524C1.2489 25.5867 1.23938 25.6268 1.2312 25.6644L0.743408 25.6644C0.649658 25.6625 0.556396 25.6783 0.469116 25.7111C0.381836 25.7437 0.302368 25.7926 0.235352 25.8547C0.168213 25.917 0.11499 25.9912 0.0786133 26.0732C0.0422363 26.1552 0.0234375 26.2432 0.0234375 26.3322C0.0234375 26.4211 0.0422363 26.5092 0.0786133 26.5911C0.11499 26.6731 0.168213 26.7473 0.235352 26.8096C0.302368 26.8717 0.381836 26.9207 0.469116 26.9532C0.556396 26.986 0.649658 27.0018 0.743408 26.9999L18.03 26.9999C18.1238 27.0018 18.217 26.986 18.3043 26.9532C18.3916 26.9207 18.4711 26.8717 18.5382 26.8096C18.6052 26.7473 18.6584 26.6731 18.6948 26.5911C18.7312 26.5092 18.75 26.4211 18.75 26.3322C18.75 26.2432 18.7312 26.1552 18.6948 26.0732C18.6584 25.9912 18.6052 25.917 18.5382 25.8547C18.4711 25.7926 18.3916 25.7437 18.3043 25.7111C18.217 25.6783 18.1238 25.6625 18.03 25.6644L18.0239 25.6587Z" fill="#595653" fill-opacity="1.000000" fill-rule="nonzero"/>
	<path id="Vector" d="" fill="#E7DBD0" fill-opacity="0" fill-rule="evenodd"/>
</svg>
